<svg width="157" height="57" viewBox="0 0 157 57" fill="none" xmlns="http://www.w3.org/2000/svg">
<mask id="mask0_7027_9119" style="mask-type:luminance" maskUnits="userSpaceOnUse" x="0" y="0" width="157" height="57">
<path d="M156.097 0.882812H0.0965576V56.7188H156.097V0.882812Z" fill="white"/>
</mask>
<g mask="url(#mask0_7027_9119)">
<path d="M43.0281 8.56051C37.8697 3.39367 31.3801 0.910156 23.1988 0.910156H0.0969238V44.2145H12.2719V56.7462H23.1988C31.3524 56.7462 37.8143 54.0629 42.9727 48.5249C48.1865 42.987 50.7103 36.2787 50.7103 27.9432C50.7103 20.1502 48.1311 13.6417 43.0281 8.56051ZM30.354 41.3884H15.0175V16.3821H23.8367C28.4681 16.3821 31.3524 18.9798 31.3524 23.1475C31.3524 28.3429 26.4991 29.5704 26.3049 29.6275L24.5577 30.0271L30.354 41.3884ZM40.9759 46.5553C36.3721 51.4937 30.5481 53.9201 23.1711 53.9201H22.0617H14.9897V44.2145H34.8468L28.5236 31.797C31.0196 30.6266 34.0703 27.9718 34.0703 23.1475C34.0703 17.4098 29.938 13.5561 23.8089 13.5561H12.2719V41.3884H2.84253V3.70768H23.1988C30.6313 3.70768 36.5108 5.96282 41.1423 10.5587C45.6905 15.0975 47.9924 20.9209 47.9924 27.9147C47.9647 35.4794 45.6905 41.5597 40.9759 46.5553Z" fill="#AADB1E"/>
</g>
<mask id="mask1_7027_9119" style="mask-type:luminance" maskUnits="userSpaceOnUse" x="0" y="0" width="157" height="57">
<path d="M156.097 0.882812H0.0965576V56.7188H156.097V0.882812Z" fill="white"/>
</mask>
<g mask="url(#mask1_7027_9119)">
<path d="M61.3875 26.7447V13.6992H66.9896C68.3208 13.6992 69.4024 14.0989 70.2621 14.8411C71.1219 15.6118 71.5656 16.5538 71.5656 17.6957C71.5656 19.5512 70.484 21.1497 68.7368 21.8063L71.5379 26.7162H68.9587L66.3517 22.1488H63.5784V26.7447H61.3875ZM66.7677 15.6403H63.5784V20.2362H66.74C68.2376 20.2362 69.2637 19.18 69.2637 17.7527C69.2915 16.5538 68.2653 15.6403 66.7677 15.6403Z" fill="#004238"/>
</g>
<mask id="mask2_7027_9119" style="mask-type:luminance" maskUnits="userSpaceOnUse" x="0" y="0" width="157" height="57">
<path d="M156.097 0.882812H0.0965576V56.7188H156.097V0.882812Z" fill="white"/>
</mask>
<g mask="url(#mask2_7027_9119)">
<path d="M73.59 25.6591C72.758 24.7741 72.342 23.5752 72.342 22.0623C72.342 20.635 72.7581 19.4646 73.6178 18.5511C74.4775 17.6091 75.5591 17.1523 76.8903 17.1523C78.1106 17.1523 79.109 17.552 79.8578 18.3798C80.6066 19.2077 80.9948 20.2924 80.9948 21.6341C80.9948 21.9195 80.9671 22.205 80.9116 22.5761H74.422C74.5607 24.2603 75.5591 25.2309 77.0845 25.2309C78.0551 25.2309 78.8871 24.7456 79.6082 23.8321L80.8839 25.0596C79.9965 26.3156 78.6653 26.9722 77.0013 26.9722C75.5591 26.9722 74.422 26.544 73.59 25.6591ZM74.4775 21.0632H78.9426C78.8594 19.6359 78.0551 18.8366 76.8348 18.8366C75.5868 18.808 74.7548 19.6359 74.4775 21.0632Z" fill="#004238"/>
</g>
<mask id="mask3_7027_9119" style="mask-type:luminance" maskUnits="userSpaceOnUse" x="0" y="0" width="157" height="57">
<path d="M156.097 0.882812H0.0965576V56.7188H156.097V0.882812Z" fill="white"/>
</mask>
<g mask="url(#mask3_7027_9119)">
<path d="M83.4078 25.6321C82.6313 24.7186 82.243 23.5768 82.243 22.1209C82.243 20.6365 82.6313 19.4661 83.4078 18.5241C84.1843 17.5821 85.2105 17.1254 86.4585 17.1254C87.6787 17.1254 88.7048 17.6106 89.3982 18.5527V13.1289H91.4782V26.7453H89.5091V25.3751C88.8158 26.4313 87.7619 26.9452 86.4585 26.9452C85.1827 26.9737 84.1843 26.5455 83.4078 25.6321ZM86.8467 25.1753C88.3721 25.1753 89.4259 23.9193 89.4259 22.0638C89.4259 20.2654 88.3721 18.9523 86.8467 18.9523C85.3491 18.9523 84.3507 20.2083 84.3507 22.0638C84.3507 23.8908 85.3491 25.1753 86.8467 25.1753Z" fill="#004238"/>
</g>
<mask id="mask4_7027_9119" style="mask-type:luminance" maskUnits="userSpaceOnUse" x="0" y="0" width="157" height="57">
<path d="M156.097 0.882812H0.0965576V56.7188H156.097V0.882812Z" fill="white"/>
</mask>
<g mask="url(#mask4_7027_9119)">
<path d="M97.1082 26.7447V13.6992H101.878C103.792 13.6992 105.317 14.2987 106.51 15.4976C107.702 16.6965 108.312 18.2095 108.312 20.0364C108.312 21.949 107.702 23.5476 106.51 24.8322C105.317 26.1167 103.764 26.7447 101.906 26.7447H97.1082ZM104.901 16.9249C104.125 16.1256 103.126 15.726 101.878 15.726H99.3269V24.7465H101.878C103.126 24.7465 104.125 24.2898 104.901 23.4334C105.678 22.5485 106.066 21.4066 106.066 20.0364C106.038 18.7804 105.678 17.7242 104.901 16.9249Z" fill="#004238"/>
</g>
<mask id="mask5_7027_9119" style="mask-type:luminance" maskUnits="userSpaceOnUse" x="0" y="0" width="157" height="57">
<path d="M156.097 0.882812H0.0965576V56.7188H156.097V0.882812Z" fill="white"/>
</mask>
<g mask="url(#mask5_7027_9119)">
<path d="M110.531 25.6591C109.699 24.7741 109.283 23.5752 109.283 22.0623C109.283 20.635 109.699 19.4646 110.559 18.5511C111.418 17.6091 112.5 17.1523 113.831 17.1523C115.051 17.1523 116.05 17.552 116.799 18.3798C117.547 19.2077 117.936 20.2924 117.936 21.6341C117.936 21.9195 117.908 22.205 117.852 22.5761H111.363C111.502 24.2603 112.5 25.2309 114.025 25.2309C114.996 25.2309 115.828 24.7456 116.549 23.8321L117.825 25.0596C116.937 26.3156 115.606 26.9722 113.942 26.9722C112.528 26.9722 111.391 26.544 110.531 25.6591ZM111.418 21.0632H115.883C115.8 19.6359 114.996 18.8366 113.776 18.8366C112.555 18.808 111.696 19.6359 111.418 21.0632Z" fill="#004238"/>
</g>
<mask id="mask6_7027_9119" style="mask-type:luminance" maskUnits="userSpaceOnUse" x="0" y="0" width="157" height="57">
<path d="M156.097 0.882812H0.0965576V56.7188H156.097V0.882812Z" fill="white"/>
</mask>
<g mask="url(#mask6_7027_9119)">
<path d="M120.432 25.6591C119.6 24.7741 119.184 23.5752 119.184 22.0623C119.184 20.635 119.6 19.4646 120.46 18.5511C121.319 17.6091 122.401 17.1523 123.732 17.1523C124.952 17.1523 125.951 17.552 126.7 18.3798C127.448 19.2077 127.837 20.2924 127.837 21.6341C127.837 21.9195 127.809 22.205 127.753 22.5761H121.264C121.402 24.2603 122.401 25.2309 123.926 25.2309C124.897 25.2309 125.729 24.7456 126.45 23.8321L127.726 25.0596C126.838 26.3156 125.507 26.9722 123.843 26.9722C122.401 26.9722 121.292 26.544 120.432 25.6591ZM121.319 21.0632H125.784C125.701 19.6359 124.897 18.8366 123.677 18.8366C122.456 18.808 121.597 19.6359 121.319 21.0632Z" fill="#004238"/>
</g>
<mask id="mask7_7027_9119" style="mask-type:luminance" maskUnits="userSpaceOnUse" x="0" y="0" width="157" height="57">
<path d="M156.097 0.882812H0.0965576V56.7188H156.097V0.882812Z" fill="white"/>
</mask>
<g mask="url(#mask7_7027_9119)">
<path d="M129.612 26.7468V17.3552H131.608V19.2678C132.135 17.9832 133.078 17.2695 134.243 17.2695C134.52 17.2695 134.853 17.2981 135.103 17.3552L134.909 19.2963C134.604 19.2392 134.437 19.2392 134.243 19.2392C132.662 19.2392 131.719 20.5523 131.719 22.8075V26.7468H129.612Z" fill="#004238"/>
</g>
<mask id="mask8_7027_9119" style="mask-type:luminance" maskUnits="userSpaceOnUse" x="0" y="0" width="157" height="57">
<path d="M156.097 0.882812H0.0965576V56.7188H156.097V0.882812Z" fill="white"/>
</mask>
<g mask="url(#mask8_7027_9119)">
<path d="M61.3875 44.2174V31.1719H66.6845C68.0157 31.1719 69.0973 31.5715 69.9571 32.3994C70.8168 33.2272 71.2328 34.2548 71.2328 35.4538C71.2328 36.7384 70.7891 37.8517 69.9293 38.708C69.0696 39.593 67.9603 40.0211 66.6568 40.0211H63.5784V44.1889H61.3875V44.2174ZM66.4904 33.1416H63.5784V38.1086H66.4627C67.9048 38.1086 68.9587 36.9953 68.9587 35.5109C68.9864 34.1407 67.9325 33.1416 66.4904 33.1416Z" fill="#004238"/>
</g>
<mask id="mask9_7027_9119" style="mask-type:luminance" maskUnits="userSpaceOnUse" x="0" y="0" width="157" height="57">
<path d="M156.097 0.882812H0.0965576V56.7188H156.097V0.882812Z" fill="white"/>
</mask>
<g mask="url(#mask9_7027_9119)">
<path d="M73.0079 35.9952C73.8677 35.0817 75.0047 34.625 76.3914 34.625C77.7781 34.625 78.9151 35.0817 79.7749 35.9952C80.6623 36.9087 81.1061 38.0791 81.1061 39.5349C81.1061 40.9908 80.6623 42.1897 79.7749 43.1032C78.9151 44.0167 77.7781 44.4734 76.3914 44.4734C75.0047 44.4734 73.8677 44.0167 73.0079 43.1032C72.1482 42.1897 71.7045 40.9908 71.7045 39.5349C71.7045 38.0791 72.1482 36.9087 73.0079 35.9952ZM76.3914 36.4234C74.8661 36.4234 73.8122 37.6794 73.8122 39.5064C73.8122 41.3048 74.8661 42.5893 76.3914 42.5893C77.9445 42.5893 78.9706 41.3333 78.9706 39.5064C78.9706 37.6794 77.9167 36.4234 76.3914 36.4234Z" fill="#004238"/>
</g>
<mask id="mask10_7027_9119" style="mask-type:luminance" maskUnits="userSpaceOnUse" x="0" y="0" width="157" height="57">
<path d="M156.097 0.882812H0.0965576V56.7188H156.097V0.882812Z" fill="white"/>
</mask>
<g mask="url(#mask10_7027_9119)">
<path d="M84.6002 30.6289H82.4924V44.2454H84.6002V30.6289Z" fill="#004238"/>
</g>
<mask id="mask11_7027_9119" style="mask-type:luminance" maskUnits="userSpaceOnUse" x="0" y="0" width="157" height="57">
<path d="M156.097 0.882812H0.0965576V56.7188H156.097V0.882812Z" fill="white"/>
</mask>
<g mask="url(#mask11_7027_9119)">
<path d="M89.0933 44.3015L85.488 34.8242H87.7898L90.1472 41.6467L92.5877 34.8242H94.7232L89.6757 48.2979H87.5402L89.0933 44.3015Z" fill="#004238"/>
</g>
<mask id="mask12_7027_9119" style="mask-type:luminance" maskUnits="userSpaceOnUse" x="0" y="0" width="157" height="57">
<path d="M156.097 0.882812H0.0965576V56.7188H156.097V0.882812Z" fill="white"/>
</mask>
<g mask="url(#mask12_7027_9119)">
<path d="M97.1082 36.5671H95.5828V34.8258H97.1082V31.8855L99.1882 31.1719V34.8258H101.878V36.5671H99.1882V41.163C99.1882 42.2192 99.5764 42.5903 100.519 42.5903C100.963 42.5903 101.324 42.4761 101.961 42.0765L102.572 43.6465C101.906 44.1603 101.102 44.4172 100.242 44.4172C98.162 44.4172 97.1082 43.361 97.1082 41.4199V36.5671Z" fill="#004238"/>
</g>
<mask id="mask13_7027_9119" style="mask-type:luminance" maskUnits="userSpaceOnUse" x="0" y="0" width="157" height="57">
<path d="M156.097 0.882812H0.0965576V56.7188H156.097V0.882812Z" fill="white"/>
</mask>
<g mask="url(#mask13_7027_9119)">
<path d="M104.208 43.1317C103.376 42.2468 102.96 41.0479 102.96 39.5349C102.96 38.1076 103.376 36.9372 104.236 36.0237C105.095 35.0817 106.177 34.625 107.508 34.625C108.728 34.625 109.727 35.0246 110.476 35.8525C111.224 36.6803 111.613 37.7651 111.613 39.1067C111.613 39.3922 111.585 39.6776 111.529 40.0487H105.04C105.179 41.733 106.177 42.7035 107.702 42.7035C108.673 42.7035 109.505 42.2182 110.226 41.3048L111.502 42.5323C110.614 43.7883 109.283 44.4448 107.619 44.4448C106.177 44.4448 105.068 43.9881 104.208 43.1317ZM105.095 38.5073H109.56C109.477 37.08 108.673 36.2807 107.453 36.2807C106.205 36.2807 105.373 37.1085 105.095 38.5073Z" fill="#004238"/>
</g>
<mask id="mask14_7027_9119" style="mask-type:luminance" maskUnits="userSpaceOnUse" x="0" y="0" width="157" height="57">
<path d="M156.097 0.882812H0.0965576V56.7188H156.097V0.882812Z" fill="white"/>
</mask>
<g mask="url(#mask14_7027_9119)">
<path d="M114.081 43.1317C113.276 42.2468 112.86 41.0764 112.86 39.592C112.86 38.1362 113.276 36.9372 114.136 36.0237C114.996 35.0817 116.078 34.625 117.409 34.625C119.267 34.625 120.709 35.567 121.402 37.2798L119.6 38.1647C119.073 37.0229 118.324 36.4805 117.381 36.4805C115.939 36.4805 114.968 37.7365 114.968 39.592C114.968 41.3904 115.967 42.6179 117.409 42.6179C118.435 42.6179 119.156 42.0184 119.738 40.7053L121.486 41.5902C120.681 43.4743 119.267 44.4734 117.381 44.4734C116.022 44.4448 114.913 43.9881 114.081 43.1317Z" fill="#004238"/>
</g>
<mask id="mask15_7027_9119" style="mask-type:luminance" maskUnits="userSpaceOnUse" x="0" y="0" width="157" height="57">
<path d="M156.097 0.882812H0.0965576V56.7188H156.097V0.882812Z" fill="white"/>
</mask>
<g mask="url(#mask15_7027_9119)">
<path d="M131.248 44.2141H129.168V38.7047C129.168 37.1632 128.558 36.4781 127.338 36.4781C125.895 36.4781 125.063 37.6485 125.063 39.5326V44.2141H122.956V30.5977H125.063V36.0785C125.701 35.0794 126.644 34.5941 127.892 34.5941C128.918 34.5941 129.723 34.9367 130.305 35.6218C130.915 36.3069 131.22 37.1632 131.22 38.2194V44.2141H131.248Z" fill="#004238"/>
</g>
<mask id="mask16_7027_9119" style="mask-type:luminance" maskUnits="userSpaceOnUse" x="0" y="0" width="157" height="57">
<path d="M156.097 0.882812H0.0965576V56.7188H156.097V0.882812Z" fill="white"/>
</mask>
<g mask="url(#mask16_7027_9119)">
<path d="M133.328 44.2138V34.8221H135.325V36.2494C135.99 35.1361 136.961 34.5938 138.264 34.5938C139.291 34.5938 140.095 34.9363 140.705 35.6214C141.315 36.3065 141.62 37.1629 141.62 38.2191V44.2138H139.54V38.7044C139.54 37.1629 138.93 36.4778 137.71 36.4778C136.268 36.4778 135.436 37.6482 135.436 39.5322V44.2138H133.328Z" fill="#004238"/>
</g>
<mask id="mask17_7027_9119" style="mask-type:luminance" maskUnits="userSpaceOnUse" x="0" y="0" width="157" height="57">
<path d="M156.097 0.882812H0.0965576V56.7188H156.097V0.882812Z" fill="white"/>
</mask>
<g mask="url(#mask17_7027_9119)">
<path d="M144.726 33.0529C143.95 33.0529 143.395 32.4535 143.395 31.6827C143.395 30.9405 144.005 30.3125 144.726 30.3125C145.503 30.3125 146.113 30.9405 146.113 31.6827C146.113 32.4535 145.531 33.0529 144.726 33.0529ZM143.672 34.8228H145.78V44.2144H143.672V34.8228Z" fill="#004238"/>
</g>
<path d="M148.693 43.1317C147.888 42.2468 147.472 41.0764 147.472 39.592C147.472 38.1362 147.888 36.9372 148.748 36.0237C149.608 35.0817 150.689 34.625 152.021 34.625C153.879 34.625 155.321 35.567 156.014 37.2798L154.212 38.1647C153.685 37.0229 152.936 36.4805 151.993 36.4805C150.551 36.4805 149.58 37.7365 149.58 39.592C149.58 41.3904 150.579 42.6179 152.021 42.6179C153.047 42.6179 153.768 42.0184 154.35 40.7053L156.097 41.5902C155.293 43.4743 153.879 44.4734 151.993 44.4734C150.606 44.4448 149.525 43.9881 148.693 43.1317Z" fill="#004238"/>
</svg>
